<?xml version="1.0" encoding="UTF-8"?>
<svg xmlns="http://www.w3.org/2000/svg" version="1.1" viewBox="0 0 853 181.4">
  <defs>
    <style>
      .cls-1 {
        fill: #fff;
      }
    </style>
  </defs>
  <!-- Generator: Adobe Illustrator 28.7.1, SVG Export Plug-In . SVG Version: 1.2.0 Build 142)  -->
  <g>
    <g id="Layer_1">
      <path class="cls-1" d="M599.2,137.9c0-8-1.7-15.1-5.1-21.1s-8.1-10.7-14.2-13.9c-6-3.3-12.9-4.9-20.7-4.9s-15,1.7-21.1,5c-6.1,3.4-10.9,8.1-14.3,14.4-3.4,6.2-5.1,13.5-5.1,21.8s1.7,15.6,5.2,21.8c3.4,6.2,8.2,11,14.4,14.4s13.1,5,21,5,12.4-1.2,17.7-3.6c5.3-2.4,9.7-5.7,13.1-9.9s5.9-9,7.3-14.2h-26.2c-2.4,5.2-6.7,7.8-12.8,7.8s-7.6-1.3-10.4-4c-2.8-2.6-4.4-6.4-4.8-11.4h55.6c.3-2.5.4-4.9.4-7.2ZM543.3,131.4c.7-4.4,2.4-7.8,5.2-10.2,2.8-2.4,6.3-3.6,10.4-3.6s7.9,1.2,10.8,3.7c2.9,2.5,4.3,5.8,4.3,10.1h-30.7Z"/>
      <rect class="cls-1" x="671.3" y="99.1" width="24.6" height="80.2"/>
      <path class="cls-1" d="M645.8,89.6c1.9-1.6,5.2-2.3,9.9-2v-20.8c-.9,0-2.2,0-4,0-10.9,0-19.2,2.6-24.9,7.7s-8.5,12.6-8.5,22.5v2.3h-8.9v20.4h8.9v59.8h24.6v-59.8h13.2v-20.5h-13.2v-.7c0-4.2,1-7.2,2.9-8.8Z"/>
      <polygon class="cls-1" points="713 179.3 775.2 179.3 775.2 159 740.4 159 774.5 118.6 774.5 99.1 713.3 99.1 713.3 119.4 746.3 119.4 713 159.7 713 179.3"/>
      <polygon class="cls-1" points="849.5 118.6 849.5 99.1 788.3 99.1 788.3 119.4 821.3 119.4 788 159.7 788 179.3 850.2 179.3 850.2 159 815.4 159 849.5 118.6"/>
      <path class="cls-1" d="M299.7,79.6v19.5h-9.8v20.4h9.8v31.9c0,9.9,2.5,17,7.5,21.3,5,4.4,11.9,6.5,20.8,6.5h12.5v-20.8h-8.8c-2.7,0-4.6-.5-5.7-1.6s-1.7-2.8-1.7-5.2v-32.2h16.1v-20.3h-16.1v-19.5h-24.6Z"/>
      <path class="cls-1" d="M178.6,137.9c0-8-1.7-15.1-5.1-21.1s-8.1-10.7-14.2-13.9-12.9-4.9-20.7-4.9-15,1.7-21.1,5c-6.1,3.4-10.9,8.1-14.3,14.4s-5.1,13.5-5.1,21.8,1.7,15.6,5.2,21.8,8.2,11,14.4,14.4c6.1,3.4,13.1,5,21,5s12.4-1.2,17.7-3.6c5.3-2.4,9.7-5.7,13.1-9.9,3.5-4.2,5.9-9,7.3-14.2h-26.2c-2.4,5.2-6.7,7.8-12.8,7.8s-7.6-1.3-10.4-4c-2.8-2.6-4.4-6.4-4.8-11.4h55.6c.2-2.5.4-4.9.4-7.2ZM122.7,131.4c.7-4.4,2.4-7.8,5.2-10.2,2.8-2.4,6.3-3.6,10.4-3.6s7.9,1.2,10.8,3.7c2.9,2.5,4.3,5.8,4.3,10.1h-30.7Z"/>
      <path class="cls-1" d="M195.2,99.1v80.2h24.6v-43.5c0-5.4,1.4-9.5,4.2-12.5s6.5-4.5,11.2-4.5,8.4,1.5,11.2,4.5,4.2,7.1,4.2,12.5v43.5h24.4v-46.8c0-10.6-2.8-19-8.4-25.1s-13.1-9.1-22.5-9.1-10,1-14.2,3.1-7.6,4.9-10.1,8.4v-10.7h-24.6Z"/>
      <path class="cls-1" d="M357.1,99.1v46.8c0,7,1.3,13.1,3.9,18.2,2.6,5.2,6.2,9.1,10.9,11.9,4.7,2.7,10.1,4.1,16.2,4.1s9.9-1.1,14.2-3.2c4.3-2.2,7.6-5,10.1-8.5v10.9h24.6v-80.2h-24.6v43.5c0,5.4-1.4,9.5-4.2,12.5-2.8,3-6.6,4.5-11.4,4.5s-8.4-1.5-11.2-4.5c-2.8-3-4.2-7.1-4.2-12.5v-43.5h-24.3Z"/>
      <polygon class="cls-1" points="88.9 99.1 62.8 99.1 45.4 156.3 28 99.1 1.7 99.1 30.1 179.3 60.5 179.3 88.9 99.1"/>
      <path class="cls-1" d="M458.4,99.1v80.2h24.6v-37.2c0-6.6,1.5-11.2,4.6-13.9,3.1-2.6,7.7-4,13.8-4h6.8v-26c-5.3,0-10.1,1.3-14.4,3.8s-7.9,6-10.8,10.4v-13.3h-24.6Z"/>
      <ellipse class="cls-1" cx="724" cy="56.1" rx="14.3" ry="13.4"/>
      <ellipse class="cls-1" cx="684.8" cy="73.9" rx="14.3" ry="13.4"/>
      <ellipse class="cls-1" cx="688.3" cy="34.7" rx="14.3" ry="13.4"/>
    </g>
  </g>
</svg>