<?xml version="1.0" encoding="utf-8"?>
<!-- Generator: Adobe Illustrator 23.0.1, SVG Export Plug-In . SVG Version: 6.00 Build 0)  -->
<svg version="1.1" id="Layer_1" xmlns="http://www.w3.org/2000/svg" xmlns:xlink="http://www.w3.org/1999/xlink"  x="0px" y="0px"
	 viewBox="0 0 390.7 141.3" style="enable-background:new 0 0 390.7 141.3;" xml:space="preserve">
<style type="text/css">
	.st0{fill:#FFFFFF;}
</style>
<g id="logo-text">
	<path class="st0" d="M25.9,75v21.5h-1.6V75h-8.2v-1.4h18V75H25.9z"/>
	<path class="st0" d="M53.4,96.5V85.2H39.2v11.3h-1.6V73.6h1.6v10.1h14.2V73.6H55v22.8h-1.6V96.5z"/>
	<path class="st0" d="M60.7,96.5V73.6h12.4V75H62.3v8.7h8.9v1.4h-8.9V95h10.8v1.4L60.7,96.5L60.7,96.5z"/>
	<path class="st0" d="M85.2,44.9h7.1L109.8,86l17.6-41.1h6.7l-22.2,51.6h-4.5L85.2,44.9z"/>
	<path class="st0" d="M134.4,70.7c0-15.8,11.6-27.3,27.4-27.3c15.7,0,27.4,11.4,27.4,27.3c0,15.8-11.6,27.3-27.4,27.3
		C146,97.9,134.4,86.5,134.4,70.7z M182,70.7c0-12.6-8.4-21.5-20.2-21.5c-11.9,0-20.3,8.9-20.3,21.5c0,12.5,8.4,21.5,20.3,21.5
		C173.6,92.2,182,83.1,182,70.7z"/>
	<path class="st0" d="M197.5,44.9h6.9v51.6h-6.9V44.9z"/>
	<path class="st0" d="M215.3,44.9h16c20,0,28.7,11.6,28.7,25.8s-8.7,25.8-28.7,25.8h-16V44.9z M231.3,90.5
		c16.8,0,21.5-9.5,21.5-19.8s-4.7-19.8-21.5-19.8h-9.2v39.6H231.3z"/>
</g>
<g id="logo-emblem">
	<path class="st0" d="M330.5,69.2c0.8-0.3,1.6-0.6,2.4-0.8c1.3-0.4,2.6-0.7,3.9-1c2.4-0.5,4.7-0.8,7-0.9c1-0.1,2-0.1,2.9-0.1
		c1,0,2,0,2.9,0.1c1.6,0.1,3.2,0.3,4.6,0.5c1,0.2,2,0.3,2.7,0.5c1.1,0.2,2,0.4,2.5,0.4c0.2,0,0.4,0,0.5,0c0.9,0,1.7-0.2,2.2-0.6
		s0.8-0.9,0.7-1.7c-0.2-1.1-0.9-1.8-1.5-2.2c-0.9-0.7-2.1-1.1-3.4-1.1c-0.1,0-0.2,0-0.3,0c-1.1,0-3,0.3-4.9,0.6
		c-1.2,0.2-2.6,0.5-4.4,0.9c-1.6,0.4-3.5,0.8-5.5,1.4c-1,0.3-2,0.6-3.2,0.9c-1.1,0.3-2.2,0.7-3.4,1.1c-1.1,0.4-2.3,0.8-3.7,1.3
		c-0.7,0.3-1.5,0.6-2.4,0.9C330.3,69.2,330.4,69.2,330.5,69.2z"/>
	<path class="st0" d="M339.4,36.7c-0.5,0-1.1,0.1-1.6,0.4c-1,0.5-2,1.3-2.7,2.4c-0.6,0.8-1.3,2.8-2.1,4.8c-0.4,1.1-0.9,2.5-1.4,4.2
		c-0.5,1.6-1,3.5-1.6,5.5c-0.3,1-0.5,2.1-0.8,3.2c-0.3,1.1-0.5,2.3-0.8,3.5c-0.2,1.2-0.5,2.4-0.7,3.8c-0.1,0.4-0.1,0.7-0.2,1.1
		c0.1-0.4,0.2-0.8,0.3-1.2c0.3-1.3,0.6-2.6,1-3.8c0.8-2.3,1.7-4.5,2.7-6.5c0.9-1.8,1.9-3.5,3-5.1c0.9-1.4,1.9-2.6,2.8-3.8
		c0.7-0.9,1.3-1.6,1.9-2.2c0.7-0.8,1.3-1.5,1.6-1.9c0.7-1,1-1.9,1-2.6c0-0.2-0.1-0.9-1.2-1.4C340.1,36.8,339.8,36.7,339.4,36.7z"/>
	<path class="st0" d="M315.5,86.5c0.7-0.8,1.5-1.6,2.4-2.6c0.8-0.9,1.7-1.9,2.5-2.9c0.9-1,1.7-2.1,2.5-3.3c0.7-0.9,1.4-2,2.3-3.1
		c0.1-0.7,0.2-1.3,0.3-2c-0.8,0.3-1.6,0.6-2.3,0.9c-0.8,0.9-1.7,1.7-2.4,2.4c-1.1,1-2.1,1.9-3.2,2.7c-1,0.8-2.1,1.5-3.2,2.2
		s-2.1,1.3-3.1,1.8c-2,1-3.9,1.9-5.8,2.6c-1.7,0.6-3.4,1.2-5.1,1.6c-1.4,0.4-2.9,0.7-4.4,0.9c-1.1,0.2-2.3,0.4-3.6,0.6
		c-2.3,0.3-3.8,0.6-5,1c-1.4,0.4-2.5,0.9-3.4,1.5c-0.8,0.5-1.5,1.2-1.8,1.8c-0.4,0.7-0.5,1.4-0.5,2.2c0.1,0.9,0.4,1.8,1,2.8
		s1.4,1.9,2.3,2.6s2,1.3,3.2,1.6c1.1,0.3,2.2,0.5,3.4,0.5c0.2,0,0.3,0,0.5,0c1.4-0.1,2.9-0.3,4.4-0.9c1.4-0.5,2.9-1.3,4.8-2.5
		c0.8-0.5,1.8-1.2,2.9-2c1-0.8,2.1-1.6,3.3-2.7c1.2-1,2.5-2.2,3.9-3.4C312.5,89.5,313.9,88.1,315.5,86.5z"/>
	<path class="st0" d="M322.2,92.9c0.5-1.6,1-3.5,1.5-5.5c0.3-1,0.5-2,0.8-3.2c0.2-1.1,0.5-2.3,0.8-3.5c0.2-1.2,0.5-2.4,0.7-3.8
		c0.1-0.3,0.1-0.7,0.2-1c-0.1,0.4-0.2,0.8-0.2,1.1c-0.3,1.3-0.6,2.6-1,3.8c-0.8,2.3-1.6,4.5-2.6,6.5c-0.9,1.8-1.9,3.5-2.9,5.1
		c-0.9,1.4-1.9,2.7-2.8,3.8c-0.7,0.9-1.3,1.6-1.9,2.2c-0.7,0.8-1.3,1.5-1.6,1.9c-0.7,1-1,1.9-1,2.7c0,0.4,0.2,0.9,1.1,1.3
		c0.4,0.2,0.8,0.2,1.3,0.2s1.1-0.1,1.6-0.4c1-0.5,2-1.3,2.7-2.4c0.6-0.8,1.3-2.8,2.1-4.8C321.2,96,321.7,94.6,322.2,92.9z"/>
	<path class="st0" d="M373.3,92.3c0.2-1.2,0.1-2.4-0.2-3.6c-0.3-1.3-0.8-2.5-1.5-3.7c-0.8-1.2-1.8-2.4-3-3.4
		c-1.1-0.9-2.5-1.8-4.5-2.8c-0.9-0.4-1.9-0.9-3.2-1.4c-1.2-0.5-2.5-1-4-1.5s-3.1-1.1-4.9-1.6s-3.7-1.1-6-1.6c-1-0.3-2.2-0.5-3.4-0.8
		c-1.2-0.3-2.5-0.5-3.8-0.7s-2.7-0.4-4.1-0.6c-1-0.1-2.1-0.2-3.4-0.3c-0.7,0.2-1.3,0.5-2,0.8c0.7,0.5,1.3,1,2,1.5
		c1.2,0.3,2.3,0.6,3.3,0.9c1.3,0.4,2.7,0.9,3.9,1.5c1.2,0.5,2.4,1.1,3.5,1.6c1.1,0.6,2.2,1.2,3.1,1.8c1.9,1.2,3.6,2.4,5.2,3.7
		c1.4,1.1,2.7,2.3,4,3.6c1.1,1.1,2,2.1,3,3.3c0.8,0.9,1.5,1.8,2.3,2.8c1.4,1.8,2.4,3,3.3,4c1,0.9,2,1.7,2.9,2.2s1.7,0.7,2.5,0.8h0.1
		c1.5,0,2.8-1,3.8-2.9C372.7,94.6,373.1,93.5,373.3,92.3z"/>
	<path class="st0" d="M334.2,119.8c0.9-0.9,1.7-2,2.4-3.2c0.7-1.3,1.2-2.7,1.5-4.3c0.3-1.4,0.4-3,0.2-5.2c-0.1-1-0.2-2.1-0.3-3.4
		c-0.2-1.2-0.4-2.6-0.7-4.2c-0.3-1.5-0.6-3.2-1-5s-0.9-3.8-1.5-6c-0.3-1-0.6-2.1-1-3.4c-0.4-1.2-0.8-2.4-1.3-3.6
		c-0.5-1.3-1-2.6-1.5-3.9c-0.4-1-0.9-2.1-1.4-3.3c-0.6-0.5-1.2-1-1.8-1.4c-0.1,0.9-0.2,1.7-0.4,2.6c0.3,1.1,0.6,2.3,0.9,3.3
		c0.3,1.4,0.5,2.8,0.7,4.1c0.2,1.3,0.3,2.6,0.4,3.9c0.1,1.2,0.1,2.5,0,3.6c-0.1,2.2-0.3,4.3-0.6,6.3c-0.3,1.8-0.7,3.5-1.1,5.2
		c-0.4,1.4-0.8,2.8-1.3,4.2c-0.4,1.1-0.8,2.2-1.3,3.4c-0.8,2-1.4,3.5-1.7,4.7c-0.3,1.4-0.5,2.6-0.5,3.7c0,1,0.2,1.9,0.6,2.6
		c0.7,1.4,2.1,2.1,4.2,2.1h0.2c1.2,0,2.3-0.3,3.4-0.7C332.3,121.3,333.3,120.7,334.2,119.8z"/>
	<path class="st0" d="M349.8,93.1c-0.5-0.9-1.8-2.6-3-4.1c-0.8-0.9-1.7-2-2.9-3.3c-1.1-1.2-2.5-2.6-3.9-4.1
		c-0.7-0.7-1.5-1.5-2.4-2.3c-0.8-0.8-1.7-1.6-2.7-2.4c-0.9-0.8-1.9-1.6-3-2.5c-0.5-0.4-1.1-0.9-1.7-1.4c-0.1,0-0.1,0-0.2,0v0.1
		c0.6,0.5,1.2,1,1.8,1.5c1,0.9,2,1.9,2.8,2.8c1.6,1.8,3.1,3.7,4.4,5.5c1.1,1.7,2.1,3.4,3,5.1c0.7,1.5,1.4,2.9,1.9,4.3
		c0.4,1.1,0.8,2.1,1,2.9c0.4,1,0.6,1.8,0.8,2.2c0.5,1.1,1.1,1.8,1.8,2.1c0.2,0.1,0.4,0.2,0.6,0.2c0.3,0,0.7-0.1,1-0.4
		c0.9-0.8,1.2-1.8,1.3-2.6C350.6,95.6,350.4,94.3,349.8,93.1z"/>
	<path class="st0" d="M280.3,49c-0.2,1.2-0.1,2.4,0.2,3.7c0.3,1.3,0.8,2.5,1.5,3.7c0.8,1.2,1.8,2.4,3,3.4c1.1,0.9,2.5,1.8,4.5,2.8
		c0.9,0.4,1.9,0.9,3.2,1.4c1.2,0.5,2.5,1,4,1.5s3.1,1.1,4.9,1.6s3.7,1.1,6,1.6c1,0.3,2.2,0.5,3.4,0.8c1.2,0.3,2.5,0.5,3.8,0.7
		s2.7,0.4,4.1,0.6c1.2,0.1,2.4,0.3,3.9,0.4c0.6-0.2,1.3-0.5,1.9-0.8c-0.6-0.5-1.2-1-1.8-1.4c-1.4-0.3-2.7-0.7-3.8-1.1
		c-1.3-0.4-2.7-0.9-3.9-1.5c-1.2-0.5-2.4-1.1-3.5-1.6c-1.1-0.6-2.2-1.2-3.1-1.8c-1.9-1.2-3.6-2.4-5.2-3.7c-1.4-1.1-2.7-2.3-4-3.6
		c-1.1-1.1-2-2.1-3-3.3c-0.8-0.9-1.5-1.8-2.3-2.8c-1.4-1.8-2.4-3-3.3-4c-1-0.9-2-1.7-2.9-2.2s-1.7-0.7-2.5-0.8h-0.1
		c-1.5,0-2.8,1-3.8,2.9C280.8,46.7,280.5,47.9,280.3,49z"/>
	<path class="st0" d="M346.3,47.1c-1.2,1-2.5,2.2-3.9,3.4c-1.4,1.3-2.8,2.7-4.4,4.3c-0.8,0.8-1.5,1.6-2.4,2.6
		c-0.8,0.9-1.7,1.9-2.5,2.9c-0.9,1-1.7,2.1-2.5,3.3c-0.6,0.8-1.3,1.7-2,2.7c-0.1,0.8-0.3,1.6-0.4,2.4c0.7-0.3,1.3-0.5,1.9-0.8
		c0.9-0.9,1.8-1.8,2.6-2.5c1.1-1,2.2-1.9,3.3-2.7c1-0.8,2.1-1.5,3.2-2.2s2.1-1.3,3.1-1.8c2-1,3.9-1.9,5.8-2.6
		c1.7-0.6,3.4-1.2,5.1-1.6c1.4-0.4,2.9-0.7,4.4-0.9c1.1-0.2,2.3-0.4,3.6-0.5c2.3-0.3,3.8-0.6,5-1c1.4-0.4,2.5-0.9,3.4-1.5
		c0.8-0.5,1.5-1.2,1.9-1.8s0.5-1.4,0.5-2.2c-0.1-0.9-0.4-1.8-1-2.8s-1.4-1.9-2.3-2.6c-0.9-0.7-2-1.3-3.2-1.6
		c-1.1-0.3-2.2-0.5-3.4-0.5c-0.2,0-0.3,0-0.5,0c-1.4,0.1-2.9,0.3-4.4,0.9c-1.4,0.5-2.9,1.3-4.8,2.5c-0.8,0.5-1.8,1.2-2.9,2
		C348.6,45.3,347.5,46.1,346.3,47.1z"/>
	<path class="st0" d="M306.3,41.6c-0.2-0.1-0.4-0.1-0.7-0.1c-0.4,0-0.9,0.2-1.3,0.5c-0.6,0.5-1.1,1.3-1.2,2.4
		c-0.1,1.1,0.1,2.4,0.7,3.6c0.4,0.9,1.7,2.5,3.1,4.2c0.8,0.9,1.8,2.1,3,3.4c1.1,1.2,2.4,2.5,4,4.1c0.7,0.7,1.5,1.5,2.4,2.3
		s1.8,1.6,2.7,2.4c1,0.8,2,1.7,3,2.5c0.4,0.3,0.9,0.7,1.4,1.1l0,0c-0.5-0.4-1-0.9-1.5-1.3c-1-0.9-2-1.9-2.8-2.8
		c-1.6-1.8-3.1-3.7-4.4-5.6c-1.1-1.7-2.1-3.4-2.9-5.1c-0.7-1.5-1.4-2.9-1.9-4.3c-0.4-1.1-0.7-2-1-2.8c-0.4-1-0.6-1.8-0.9-2.3
		C307.6,42.6,306.9,41.9,306.3,41.6z"/>
	<path class="st0" d="M315.5,37.7c0.2,1.2,0.4,2.6,0.7,4.2c0.3,1.5,0.6,3.2,1,5s0.9,3.8,1.5,6c0.3,1,0.6,2.1,1,3.4
		c0.4,1.2,0.8,2.4,1.3,3.6c0.5,1.3,1,2.6,1.5,3.9c0.4,0.9,0.8,1.9,1.3,3c0.7,0.6,1.4,1.1,2.1,1.7c0.1-0.7,0.2-1.4,0.3-2.1
		c-0.4-1.3-0.7-2.6-1-3.8c-0.3-1.4-0.5-2.8-0.7-4.1s-0.3-2.6-0.3-3.9c-0.1-1.2-0.1-2.5,0-3.6c0.1-2.2,0.3-4.3,0.6-6.3
		c0.3-1.8,0.7-3.5,1.1-5.2c0.4-1.4,0.8-2.8,1.3-4.2c0.4-1.1,0.8-2.2,1.3-3.4c0.8-2,1.4-3.5,1.7-4.7c0.3-1.4,0.5-2.6,0.5-3.7
		c0-1-0.2-1.9-0.6-2.6c-0.7-1.4-2.1-2.1-4.2-2.1h-0.2c-1.2,0-2.3,0.3-3.4,0.7c-1.1,0.5-2.1,1.2-3,2c-0.9,0.9-1.7,2-2.4,3.2
		c-0.7,1.3-1.2,2.7-1.5,4.3c-0.3,1.4-0.4,3-0.2,5.2C315.3,35.2,315.4,36.3,315.5,37.7z"/>
	<path class="st0" d="M321.1,73c-1.3,0.4-2.6,0.8-3.9,1.1c-1.2,0.3-2.5,0.5-3.7,0.7s-2.3,0.3-3.4,0.3c-1,0.1-2,0.1-3,0.1s-2,0-3-0.1
		c-1.7-0.1-3.3-0.3-4.7-0.5c-1-0.2-2-0.3-2.8-0.5c-1.2-0.2-2.1-0.4-2.6-0.4c-0.2,0-0.4,0-0.6,0c-0.9,0-1.7,0.2-2.2,0.5
		c-0.5,0.4-0.7,0.8-0.6,1.5c0.2,1,0.8,1.9,1.6,2.5c0.9,0.7,2.1,1.1,3.4,1.2c0.1,0,0.2,0,0.3,0c1,0,2.7-0.3,4.9-0.6
		c1.2-0.2,2.6-0.5,4.4-0.9c1.6-0.4,3.4-0.8,5.5-1.4c1-0.3,2-0.6,3.2-0.9c1.1-0.3,2.3-0.7,3.4-1.1C318.6,74,319.8,73.6,321.1,73
		c0.7-0.2,1.3-0.4,2.1-0.7C322.5,72.6,321.8,72.8,321.1,73z"/>
</g>
</svg>
