<?xml version="1.0" encoding="utf-8"?>
<!-- Generator: Adobe Illustrator 22.0.1, SVG Export Plug-In . SVG Version: 6.00 Build 0)  -->
<svg version="1.1" id="Layer_9" xmlns="http://www.w3.org/2000/svg" xmlns:xlink="http://www.w3.org/1999/xlink" x="0px" y="0px"
	 viewBox="0 0 362 397" style="enable-background:new 0 0 362 397;" xml:space="preserve">
<style type="text/css">
	.st0{fill:#FFFFFF;}
</style>
<title>void mark</title>
<path class="st0" d="M193.3,193.7c2.7-1,5.4-1.9,8-2.6c4.4-1.3,8.8-2.6,12.9-3.3c7.7-1.6,15.4-2.6,23.3-3.1c3.3-0.2,6.6-0.3,9.8-0.3
	s6.6,0,9.8,0.3c5.2,0.3,10.4,0.9,15.5,1.7c3.5,0.6,6.6,1.1,9.2,1.6c3.7,0.7,6.6,1.2,8.4,1.3h1.8c2.6,0.1,5.2-0.5,7.5-1.9
	c1.8-1.3,2.7-3.6,2.3-5.8c-0.7-3.1-2.5-5.8-5.2-7.5c-3.3-2.3-7.3-3.6-11.3-3.7h-0.9c-5.5,0.3-11,1-16.4,2c-4,0.6-8.8,1.6-14.8,2.9
	c-5.5,1.2-11.8,2.7-18.5,4.5c-3.3,0.9-6.8,1.9-10.6,3s-7.5,2.3-11.5,3.6c-4,1.3-7.8,2.6-12.2,4.3l-8,2.9H193.3z"/>
<path class="st0" d="M223.2,84.8c-1.9,0-3.8,0.5-5.5,1.3c-3.7,1.8-6.9,4.6-9.1,8.1c-2.7,5.1-5,10.5-6.9,16c-1.4,3.8-3,8.4-4.8,14.2
	c-1.8,5.8-3.4,11.6-5.2,18.3c-0.9,3.3-1.7,6.8-2.6,10.7c-0.9,3.8-1.7,7.6-2.6,11.7s-1.6,8-2.4,12.7c-0.2,1.2-0.4,2.4-0.6,3.7
	c0.3-1.4,0.5-2.7,0.8-4c1-4.5,2.2-8.8,3.5-12.9c2.4-7.5,5.4-14.8,8.9-21.8c2.9-5.9,6.2-11.6,9.9-17.1c3.1-4.6,6.3-8.9,9.4-12.7
	c2.4-2.9,4.5-5.4,6.3-7.4c2.4-2.8,4.3-5.2,5.3-6.5c1.9-2.5,3.1-5.5,3.2-8.7c0-0.8-0.3-3.1-4.1-4.7C225.7,85.1,224.4,84.8,223.2,84.8
	z"/>
<path class="st0" d="M143.3,251.5c2.6-2.6,5.2-5.4,8-8.6c2.8-3.2,5.5-6.4,8.3-9.7c2.7-3.3,5.7-7.2,8.5-10.9
	c2.4-3.1,4.8-6.6,7.6-10.5c0.4-2.2,0.7-4.4,1-6.7l-7.8,3.1c-2.8,2.8-5.6,5.6-8.2,8c-3.5,3.2-7.2,6.2-10.9,9
	c-3.7,2.8-7.1,5.2-10.7,7.4c-3.6,2.3-7.1,4.3-10.3,6c-11.6,6.1-23.9,10.8-36.7,14c-4.8,1.2-9.6,2.2-14.7,3.1
	c-3.8,0.7-7.8,1.2-12.1,1.9c-5.7,0.5-11.3,1.7-16.8,3.3c-4,1.1-7.8,2.8-11.4,5c-2.5,1.5-4.7,3.6-6.2,6.1c-1.3,2.2-1.8,4.7-1.6,7.3
	c0.4,3.3,1.5,6.5,3.3,9.4c2,3.4,4.6,6.4,7.8,8.8c3.2,2.4,6.8,4.2,10.6,5.4c3.7,1.1,7.5,1.6,11.3,1.6h1.7c5-0.2,9.9-1.2,14.7-2.9
	c5.7-2.1,11.1-5,16.1-8.4c2.8-1.8,6-4,9.7-6.8c3.7-2.8,7.1-5.5,11.2-8.9c4.1-3.4,8.4-7.2,12.9-11.4C133.2,261.8,138,257,143.3,251.5
	z"/>
<path class="st0" d="M165.7,272.8c1.7-5.4,3.4-11.6,5.2-18.3c0.9-3.3,1.7-6.8,2.6-10.7c0.9-3.9,1.7-7.6,2.6-11.8
	c0.9-4.1,1.6-8.1,2.3-12.7c0.2-1.1,0.4-2.3,0.5-3.5c-0.2,1.3-0.5,2.6-0.8,3.8c-1,4.5-2.2,8.8-3.5,12.9c-2.4,7.5-5.4,14.8-8.8,21.9
	c-2.9,5.9-6.2,11.7-9.8,17.2c-3.1,4.6-6.2,8.9-9.4,12.8c-2.4,2.9-4.5,5.4-6.3,7.5c-2.4,2.8-4.3,5.2-5.2,6.5c-2,2.5-3.2,5.7-3.3,8.9
	c0.1,2.1,1.6,3.8,3.6,4.4c1.3,0.6,2.8,0.9,4.2,0.9c1.9,0,3.8-0.4,5.5-1.2c3.7-1.8,6.9-4.6,9.1-8.1c2.8-5.1,5.1-10.5,6.9-16
	C162.4,283.3,164,278.6,165.7,272.8z"/>
<path class="st0" d="M336.6,270.9c0.5-4.1,0.4-8.2-0.5-12.2c-1-4.4-2.8-8.5-5.2-12.3c-2.7-4.3-6-8.1-9.8-11.3
	c-4.6-3.7-9.7-6.9-15.1-9.4c-2.9-1.5-6.4-3-10.7-4.8c-4.2-1.7-8.3-3.3-13.3-5c-5.1-1.8-10.5-3.5-16.4-5.3
	c-5.9-1.8-12.5-3.6-20.1-5.5c-3.5-0.9-7.3-1.7-11.5-2.6c-4.2-0.9-8.4-1.6-12.7-2.4c-4.3-0.7-9.1-1.4-13.9-2
	c-3.4-0.4-7.2-0.8-11.3-1.1c-2.2,0.8-4.5,1.6-6.8,2.6c2.3,1.7,4.4,3.4,6.6,5.2c3.9,1,7.6,2,11.1,3.2c4.5,1.4,8.9,3.1,13.2,4.9
	c4.2,1.8,8,3.5,11.8,5.5c3.7,2,7.3,3.9,10.3,5.9c11.1,6.9,21.4,15,30.6,24.3c3.5,3.6,6.8,7.2,10.1,11c2.6,3.1,5.2,6.2,7.8,9.5
	c3.4,4.7,7.1,9.1,11.1,13.2c2.9,2.9,6.2,5.3,9.7,7.3c2.5,1.5,5.4,2.4,8.3,2.6h0.4c5,0,9.3-3.2,12.7-9.6
	C334.8,279,336.1,275,336.6,270.9z"/>
<path class="st0" d="M205.9,363c3.2-3.2,5.9-6.8,8-10.9c2.4-4.5,4.1-9.3,5.2-14.3c1-5.8,1.2-11.7,0.7-17.5c-0.2-3.2-0.5-7-1.1-11.5
	c-0.6-4.5-1.3-8.7-2.2-14c-1-5.3-2.1-10.8-3.5-16.9c-1.4-6-3-12.6-5.2-20.1c-1-3.5-2.1-7.2-3.4-11.3c-1.3-4.1-2.6-8.1-4.2-12.1
	c-1.6-4.1-3.3-8.6-5.2-12.9c-1.4-3.3-3-7-4.8-11c-1.9-1.6-3.9-3.2-6-4.8c-0.3,2.9-0.6,5.9-1.1,8.5c1.1,3.8,2.1,7.6,2.9,11.1
	c1,4.6,1.8,9.3,2.4,13.8c0.6,4.5,1,8.7,1.2,12.9c0.2,4.2,0.3,8.2,0.1,12c-0.2,7.1-0.8,14.1-1.9,21.1c-0.9,5.9-2.2,11.8-3.7,17.5
	c-1.3,4.8-2.8,9.5-4.5,14.2c-1.3,3.7-2.8,7.5-4.4,11.3c-2.3,5.1-4.2,10.4-5.8,15.8c-1.1,4-1.6,8.1-1.6,12.3c0,3,0.7,6,2,8.7
	c2.4,4.6,7.2,6.9,14.2,6.9h0.6c3.9-0.1,7.8-1,11.3-2.6C199.6,368,203,365.8,205.9,363z"/>
<path class="st0" d="M258,273.9c-3-4.9-6.4-9.5-10.2-13.8c-2.6-3.1-5.8-6.8-9.8-11.2s-8.2-8.6-13.1-13.6c-2.4-2.4-5.2-4.9-8-7.6
	c-2.8-2.7-5.8-5.2-8.9-8.1c-3.2-2.9-6.4-5.4-10-8.3c-1.8-1.4-3.7-2.9-5.8-4.6l-0.6-0.1v0.3c2.1,1.7,4,3.4,5.9,5.2
	c3.4,3.1,6.6,6.3,9.4,9.4c5.3,5.8,10.2,12,14.6,18.5c3.7,5.5,7,11.2,10,17.1c2.4,4.6,4.6,9.4,6.6,14.2c1.4,3.7,2.6,7,3.5,9.6
	c1.2,3.3,2.1,6,2.8,7.5c1.2,3,3.3,5.5,6,7.1c0.7,0.3,1.4,0.5,2.1,0.5c1.2-0.1,2.4-0.5,3.4-1.3c2.5-2.2,4.1-5.4,4.3-8.7
	C260.7,281.8,259.9,277.6,258,273.9z"/>
<path class="st0" d="M25.3,126.2c-0.5,4.1-0.3,8.2,0.6,12.2c1,4.4,2.8,8.5,5.2,12.3c2.7,4.3,6,8.1,9.9,11.4
	c4.6,3.8,9.7,6.9,15.1,9.4c2.9,1.5,6.4,3,10.7,4.8c4.2,1.7,8.2,3.2,13.3,5.2c5.1,1.9,10.5,3.5,16.4,5.3c6,1.8,12.5,3.6,20.1,5.5
	c3.5,0.9,7.3,1.7,11.5,2.6c4.3,0.9,8.4,1.6,12.7,2.4c4.3,0.7,9.2,1.4,13.9,2c3.9,0.5,8.2,0.9,12.9,1.3c2.1-0.8,4.3-1.6,6.5-2.6
	l-6.2-4.8c-4.5-1.1-8.9-2.3-12.9-3.6c-4.5-1.4-8.9-3.1-13.2-4.9c-4.2-1.8-8-3.5-11.8-5.5c-3.8-1.9-7.2-3.9-10.3-5.9
	c-6-3.7-11.8-7.8-17.3-12.3c-4.6-3.8-9.1-7.8-13.3-12c-3.5-3.5-6.8-7.1-10.1-11c-2.6-3.1-5.2-6.2-7.8-9.5
	c-3.4-4.7-7.1-9.1-11.1-13.3c-2.9-2.8-6.1-5.3-9.7-7.3c-2.5-1.5-5.4-2.4-8.3-2.6h-0.4c-5,0-9.3,3.2-12.7,9.6
	C27.2,118.3,25.9,122.2,25.3,126.2z"/>
<path class="st0" d="M246.3,119.8c-4,3.4-8.4,7.2-12.9,11.4c-4.5,4.2-9.4,8.9-14.8,14.4c-2.6,2.6-5.2,5.4-8,8.6s-5.6,6.4-8.3,9.7
	c-2.7,3.3-5.8,7.1-8.4,10.9c-2.1,2.8-4.3,5.8-6.6,9.2c-0.5,2.6-0.9,5.2-1.3,8.1l6.5-2.6c3-3,5.9-6,8.7-8.5c3.5-3.2,7.2-6.2,10.9-9
	s7.1-5.2,10.7-7.4c3.6-2.3,7.1-4.3,10.3-6c6.3-3.3,12.8-6.2,19.5-8.7c5.6-2,11.4-3.8,17.2-5.2c4.8-1.2,9.6-2.2,14.7-3.1
	c3.8-0.7,7.8-1.2,12.1-1.8c5.7-0.6,11.3-1.7,16.7-3.3c4-1.1,7.8-2.8,11.4-4.9c2.5-1.5,4.6-3.6,6.2-6.1c1.3-2.2,1.8-4.7,1.6-7.3
	c-0.4-3.3-1.5-6.5-3.3-9.4c-2-3.4-4.6-6.4-7.8-8.8c-3.2-2.4-6.8-4.2-10.6-5.4c-3.7-1.1-7.5-1.6-11.4-1.6h-1.7
	c-5,0.2-9.9,1.2-14.7,2.8c-5.7,2.1-11.1,4.9-16.2,8.4c-2.8,1.8-6,4-9.7,6.8C253.7,113.7,250.4,116.4,246.3,119.8z"/>
<path class="st0" d="M112.3,101.2c-0.7-0.4-1.4-0.5-2.2-0.6c-1.6,0.1-3.1,0.7-4.4,1.7c-2.3,2-3.8,4.9-3.9,8c-0.3,4.1,0.5,8.3,2.4,12
	c3,5,6.5,9.7,10.3,14c2.6,3.2,5.9,6.9,10,11.3c3.7,4,8.1,8.5,13.4,13.9c2.4,2.4,5,4.9,8,7.8c3,2.9,5.9,5.4,9.1,8.1s6.6,5.6,10.1,8.5
	l4.6,3.6l0,0c-1.7-1.4-3.4-2.9-5-4.3c-3.4-3-6.6-6.2-9.7-9.6c-5.3-5.9-10.2-12.1-14.6-18.7c-3.7-5.5-6.9-11.2-9.9-17.2
	c-2.3-4.7-4.4-9.6-6.3-14.5c-1.3-3.5-2.4-6.6-3.3-9.3c-1.2-3.4-2.1-6.2-2.9-7.8C117.2,105.3,115.1,102.8,112.3,101.2z"/>
<path class="st0" d="M143.4,88.1c0.5,4.1,1.2,8.7,2.2,14c1,5.3,2.1,10.8,3.4,16.9c1.4,6,3,12.6,5.2,20.1c1,3.5,2.1,7.2,3.4,11.3
	c1.3,4.1,2.6,8,4.2,12.1c1.6,4.1,3.3,8.6,5.2,12.9c1.3,3.1,2.6,6.4,4.4,10c2.2,1.9,4.6,3.9,7.1,5.7c0.3-2.4,0.6-4.7,1-7
	c-1.3-4.4-2.4-8.7-3.3-12.6c-1-4.6-1.8-9.3-2.4-13.8c-0.6-4.5-1-8.7-1.2-12.9c-0.2-4.2-0.2-8.2,0-12c0.2-7.1,0.9-14.1,2-21.1
	c0.9-5.9,2.2-11.7,3.8-17.5c1.3-4.8,2.8-9.5,4.5-14.2c1.3-3.7,2.8-7.4,4.4-11.3c2.3-5.1,4.3-10.4,5.9-15.8c1.1-4,1.6-8.2,1.6-12.3
	c0-3-0.7-6-2-8.7c-2.4-4.6-7.2-6.9-14.2-6.9h-0.6c-3.9,0.1-7.8,1-11.3,2.6c-3.7,1.7-7.1,4-10,6.8c-3.2,3.2-6,6.8-8.1,10.8
	c-2.4,4.5-4.1,9.3-5.2,14.3c-1.1,5.7-1.4,11.6-1,17.4C142.4,79.8,142.8,83.6,143.4,88.1z"/>
<path class="st0" d="M161.9,206.4c-4.3,1.4-8.7,2.6-12.9,3.5s-8.2,1.7-12.3,2.2c-4.1,0.6-7.8,0.9-11.5,1.1c-3.7,0.2-6.7,0.3-9.9,0.3
	c-3.2,0-6.8,0-10.1-0.3c-5.6-0.4-10.9-1-15.9-1.8c-3.5-0.6-6.6-1.2-9.2-1.7c-3.9-0.7-6.9-1.3-8.6-1.4c-0.7,0-1.4,0-2.1,0
	c-2.6-0.1-5.1,0.5-7.3,1.8c-1.7,1.1-2.5,3.2-2,5.2c0.7,3.4,2.7,6.4,5.5,8.5c3.4,2.4,7.3,3.7,11.5,3.9H78c5.5-0.3,10.9-1,16.3-2.1
	c4-0.7,8.8-1.7,14.7-3c5.2-1.2,11.3-2.7,18.5-4.7c3.2-0.9,6.7-1.9,10.6-3.1c4-1.2,7.6-2.4,11.5-3.7c3.9-1.3,8.1-2.9,12.3-4.5
	c2.2-0.8,4.4-1.7,7-2.6C166.5,204.9,164.2,205.7,161.9,206.4z"/>
</svg>
